<?xml version="1.0" standalone="no"?>
<!DOCTYPE svg PUBLIC "-//W3C//DTD SVG 20010904//EN"
 "http://www.w3.org/TR/2001/REC-SVG-20010904/DTD/svg10.dtd">
<svg version="1.0" xmlns="http://www.w3.org/2000/svg"
 width="512.000000pt" height="512.000000pt" viewBox="0 0 512.000000 512.000000"
 preserveAspectRatio="xMidYMid meet">
<metadata>
Created by potrace 1.14, written by Peter Selinger 2001-2017
</metadata>
<g transform="translate(0.000000,512.000000) scale(0.100000,-0.100000)"
fill="#000000" stroke="none">
<path d="M2765 4983 c-47 -12 -146 -77 -216 -142 -82 -76 -121 -143 -121 -210
0 -20 -5 -42 -10 -49 -12 -14 -4 -166 11 -205 6 -14 13 -65 16 -114 6 -84 33
-228 42 -219 8 8 -17 322 -28 354 -9 26 -8 52 5 125 24 129 63 191 134 212 19
5 25 2 29 -15 5 -18 11 -20 43 -15 26 4 40 2 49 -9 7 -9 29 -18 50 -22 20 -4
39 -11 42 -17 4 -6 15 -7 25 -2 11 5 25 7 32 6 6 -1 12 2 12 7 0 19 33 22 47
5 13 -16 14 -16 8 10 -5 27 9 38 19 15 2 -7 2 13 -1 44 l-6 57 64 -2 c50 -2
71 -8 97 -27 76 -57 142 -222 167 -420 4 -30 9 -71 11 -90 9 -69 26 -129 40
-141 12 -10 14 3 14 82 0 52 -6 137 -12 189 -10 87 -13 123 -19 250 -1 28 -11
60 -27 85 -34 53 -141 153 -172 161 -14 4 -30 13 -37 21 -7 9 -19 13 -28 9
-17 -6 -45 7 -83 42 -14 12 -36 21 -51 20 -14 0 -48 1 -76 5 -27 3 -59 3 -70
0z"/>
<path d="M3050 4380 c-14 -5 -42 -11 -63 -15 -21 -3 -52 -19 -70 -35 l-32 -29
23 -21 c13 -12 27 -32 32 -45 8 -21 15 -23 67 -23 32 0 72 5 88 12 l30 11 -35
6 -35 6 37 16 c21 9 49 17 64 17 22 0 25 2 14 15 -8 10 -32 15 -69 16 -47 0
-52 2 -31 10 13 6 47 11 74 12 58 2 67 16 27 40 -31 18 -80 21 -121 7z"/>
<path d="M2580 4317 c-20 -10 -54 -56 -47 -63 1 -2 28 4 60 11 31 7 67 11 79
7 17 -4 12 -8 -28 -20 -27 -7 -55 -19 -61 -24 -22 -18 -14 -28 17 -22 16 4 46
3 67 -1 l38 -8 -27 -9 c-32 -11 -37 -28 -9 -28 27 0 100 27 116 44 8 8 15 21
15 30 0 8 12 22 28 30 15 8 24 16 20 17 -5 1 -11 2 -15 3 -5 1 -14 5 -21 10
-50 31 -188 45 -232 23z"/>
<path d="M3015 4104 c4 -11 8 -30 9 -44 1 -22 -4 -25 -34 -28 -19 -1 -44 -7
-55 -12 -28 -14 -87 -18 -108 -8 -17 9 -63 1 -53 -9 2 -3 1 -16 -4 -29 -8 -21
-7 -24 13 -25 93 -2 118 -2 167 5 30 5 66 13 80 19 14 5 45 11 70 13 37 2 42
1 25 -8 -11 -6 -22 -15 -25 -19 -14 -20 -333 -65 -366 -52 -8 3 -14 11 -14 19
0 8 -6 11 -15 8 -8 -4 -15 -1 -15 4 0 17 20 25 34 13 7 -6 16 -8 19 -4 12 11
8 23 -7 23 -7 0 -16 10 -19 22 -7 24 9 61 22 53 5 -3 11 2 15 10 6 18 -9 29
-26 19 -7 -4 -41 -32 -74 -62 l-62 -55 22 -36 c17 -30 21 -33 24 -16 6 29 22
43 23 19 1 -10 3 -35 4 -54 3 -40 23 -96 31 -87 3 3 1 22 -5 43 -14 49 -1 63
35 38 92 -65 128 -74 229 -60 57 8 81 22 133 76 50 54 66 53 59 -5 -4 -24 -2
-47 3 -50 10 -6 20 20 24 69 2 20 11 45 20 55 30 33 17 71 -34 103 -50 31 -92
52 -129 63 -21 6 -23 5 -16 -11z m22 -195 c8 -8 8 -18 1 -34 -7 -17 -30 -30
-80 -46 -61 -19 -73 -20 -108 -9 -44 15 -75 43 -65 59 3 6 34 11 68 11 34 0
85 7 112 14 64 18 59 18 72 5z"/>
<path d="M1393 3895 c-16 -7 -45 -27 -65 -44 -19 -17 -38 -28 -41 -25 -3 3
-21 -11 -41 -30 -19 -20 -43 -36 -53 -36 -10 0 -24 -4 -32 -9 -13 -9 125 -6
187 4 18 2 32 0 32 -5 0 -6 -15 -10 -34 -10 -25 0 -35 -5 -39 -20 -6 -23 -27
-27 -27 -5 0 12 -13 15 -59 15 -74 0 -152 -11 -146 -20 6 -9 -186 -23 -208
-15 -9 4 -36 -5 -61 -20 -25 -14 -55 -25 -68 -23 -17 2 -23 -2 -23 -17 0 -23
-26 -32 -98 -34 -54 -1 -87 -26 -87 -66 0 -20 5 -25 26 -25 29 0 29 -22 0 -26
-30 -4 -39 -20 -32 -58 4 -21 18 -44 34 -56 24 -20 35 -21 104 -15 l77 7 7
-36 c3 -20 15 -41 25 -46 26 -14 120 -12 149 3 41 21 91 37 85 27 -4 -6 -13
-10 -21 -10 -8 0 -14 -4 -14 -10 0 -6 37 -10 90 -10 81 0 90 -2 90 -19 0 -14
10 -20 39 -25 49 -8 70 0 64 23 -4 15 7 20 72 33 41 8 78 12 80 7 5 -7 0 -65
-11 -116 -6 -30 -130 -118 -177 -126 -22 -3 -55 -15 -75 -25 -35 -18 -37 -22
-34 -63 1 -23 7 -48 11 -53 5 -6 17 -48 26 -93 17 -81 18 -82 54 -90 36 -9 36
-9 51 -88 11 -61 11 -80 2 -83 -23 -7 -1 -21 26 -16 17 3 50 -5 87 -20 33 -14
55 -25 48 -26 -6 0 -9 -9 -6 -20 3 -12 -2 -29 -12 -40 -16 -18 -27 -20 -99
-14 -45 4 -79 4 -76 1 3 -3 62 -16 130 -27 69 -12 128 -25 133 -29 14 -14 16
-50 3 -60 -7 -6 -30 -15 -52 -20 l-39 -9 35 -2 c51 -3 72 -1 99 13 19 10 25 9
36 -6 13 -19 9 -57 -6 -57 -5 0 -9 9 -9 19 0 10 -7 21 -15 25 -12 4 -14 0 -9
-19 4 -17 0 -29 -18 -44 -24 -21 -31 -72 -11 -78 6 -2 8 6 6 20 -4 18 0 26 16
30 25 6 35 -6 26 -34 -9 -26 -44 -39 -107 -39 -61 0 -179 -19 -192 -31 -5 -4
8 -16 30 -26 21 -9 48 -25 59 -35 12 -10 32 -20 45 -22 14 -2 27 -5 30 -5 3
-1 0 -5 -6 -9 -9 -5 -7 -17 5 -42 16 -34 19 -35 69 -34 28 1 49 -2 46 -7 -3
-5 -27 -9 -54 -9 -54 0 -60 -7 -60 -70 0 -22 6 -42 14 -47 22 -13 51 -107 100
-323 25 -113 53 -229 62 -258 15 -51 17 -53 46 -50 55 5 56 20 10 215 -23 98
-49 212 -57 253 -8 41 -17 85 -20 98 -3 12 -1 22 3 22 10 0 122 -433 122 -471
0 -33 27 -69 51 -69 10 0 19 2 19 5 0 2 -26 116 -59 252 -55 234 -78 363 -65
363 3 0 14 -5 24 -10 33 -18 163 -41 256 -45 49 -2 110 -7 135 -11 42 -5 48
-3 74 25 33 35 44 33 38 -6 -13 -79 -55 -293 -65 -328 -6 -22 -12 -51 -13 -65
-2 -26 -13 -93 -45 -281 -11 -59 -30 -133 -43 -165 -25 -62 -36 -102 -62 -225
-14 -67 -15 -92 -4 -195 7 -66 11 -183 10 -261 -2 -78 0 -151 4 -163 22 -68
203 -80 1261 -80 l852 0 4 78 c3 63 11 93 43 167 40 89 40 91 40 215 0 113 -2
130 -25 175 -23 47 -24 61 -25 210 -1 228 9 367 35 470 12 50 24 92 26 94 9 9
34 -71 34 -107 0 -24 12 -64 32 -102 30 -62 31 -64 15 -93 -10 -16 -17 -40
-17 -53 0 -27 23 -78 47 -106 11 -12 16 -43 17 -106 2 -83 4 -91 33 -128 37
-46 39 -55 29 -114 -5 -31 -2 -72 11 -130 16 -74 16 -96 6 -165 -11 -76 -10
-82 12 -115 19 -31 21 -42 14 -85 -4 -28 -8 -62 -8 -77 l-1 -28 240 0 240 0 0
46 c0 25 12 83 26 129 30 96 26 140 -25 269 l-29 76 29 68 c36 86 36 115 -3
236 l-31 98 16 87 c24 125 22 150 -19 232 -38 76 -42 104 -24 184 23 106 24
149 0 201 -12 27 -32 94 -45 149 -26 113 -74 295 -80 304 -3 6 -18 62 -107
401 -22 85 -44 188 -49 229 -5 45 -19 97 -38 136 -18 40 -27 72 -24 89 3 14 2
34 -3 43 -4 10 -8 25 -9 34 -4 30 -174 247 -247 314 -93 85 -199 157 -296 202
-43 19 -84 39 -92 43 -8 5 -43 23 -78 39 -96 46 -116 64 -151 135 -28 57 -37
67 -69 76 -20 5 -51 10 -68 10 l-31 0 26 -52 c17 -35 22 -53 13 -56 -15 -5
-63 -90 -97 -172 -15 -36 -36 -75 -48 -87 -18 -20 -18 -23 -4 -23 24 0 21 -10
-15 -60 -18 -24 -40 -58 -49 -74 -9 -17 -65 -68 -125 -113 -60 -46 -144 -117
-186 -159 -60 -58 -82 -74 -97 -69 -21 6 -36 56 -29 92 2 10 -11 46 -29 81
-18 35 -33 77 -33 93 0 23 -13 42 -53 82 -46 44 -55 59 -60 100 -9 61 9 180
34 228 l18 36 -33 39 c-29 34 -39 39 -77 39 l-44 0 -3 -65 c-2 -35 4 -97 13
-138 9 -40 15 -75 13 -76 -1 -2 -28 -11 -58 -21 -142 -46 -232 -121 -308 -256
-18 -31 -39 -62 -48 -70 -27 -22 -41 -62 -48 -138 -4 -41 -15 -85 -23 -98 -23
-35 -43 -124 -53 -241 -5 -57 -14 -110 -21 -118 -6 -8 -25 -18 -42 -22 -17 -4
-35 -17 -41 -27 -6 -11 -19 -26 -29 -33 -13 -10 -16 -22 -12 -42 7 -34 -14
-50 -65 -50 -18 0 -45 -10 -62 -21 l-30 -22 -51 24 c-69 31 -77 37 -77 65 0
13 -4 24 -10 24 -5 0 -10 -7 -10 -15 0 -9 -6 -12 -15 -9 -21 8 -19 -6 2 -22
22 -16 8 -32 -15 -18 -17 11 -19 16 -21 69 -1 29 -1 29 -16 8 -10 -14 -22 -19
-35 -16 -27 7 -22 37 8 41 12 2 22 8 22 13 0 17 59 10 69 -8 8 -13 10 7 7 72
-2 50 -4 91 -5 93 -1 2 -13 -6 -27 -17 -28 -22 -40 -19 -73 19 -11 13 -13 8
-8 -32 5 -50 -5 -62 -23 -28 -17 31 -50 193 -44 215 3 11 -1 48 -9 81 -9 37
-11 67 -6 75 12 19 11 49 -1 49 -5 0 -10 -12 -10 -26 0 -19 -5 -25 -17 -22
-20 3 -32 58 -14 58 6 0 11 6 11 13 0 6 12 18 28 24 15 7 48 31 73 52 42 37
47 45 53 98 13 110 22 131 61 139 40 7 48 15 39 39 -5 12 -14 14 -35 10 l-29
-7 0 61 c0 33 -5 72 -10 87 -7 19 -8 29 -1 34 7 4 8 17 1 40 -16 55 -12 95 10
115 23 21 24 34 9 87 -21 77 -86 118 -146 93z m-250 -192 c-7 -2 -21 -2 -30 0
-10 3 -4 5 12 5 17 0 24 -2 18 -5z m301 -200 l5 -98 -14 110 c-16 125 -17 152
-5 113 4 -15 11 -71 14 -125z m-769 -3 c12 -13 15 -27 11 -45 -8 -33 -43 -33
-58 0 -6 14 -17 25 -25 25 -14 0 -18 22 -6 33 13 14 61 6 78 -13z m325 -30 c0
-5 -2 -10 -4 -10 -3 0 -8 5 -11 10 -3 6 -1 10 4 10 6 0 11 -4 11 -10z m-17
-33 c10 -4 15 -11 12 -17 -9 -15 -23 -12 -45 10 -25 25 -27 49 -2 28 9 -8 25
-18 35 -21z m-176 -79 c-2 -13 -4 -5 -4 17 -1 22 1 32 4 23 2 -10 2 -28 0 -40z
m2472 -709 c-16 -10 -23 -4 -14 10 3 6 11 8 17 5 6 -4 5 -9 -3 -15z m61 -14
c0 -8 -7 -15 -15 -15 -8 0 -15 7 -15 15 0 8 7 15 15 15 8 0 15 -7 15 -15z
m-55 -15 c32 -11 66 -26 74 -34 9 -7 39 -21 66 -30 77 -25 80 -29 65 -65 -7
-17 -16 -31 -21 -31 -4 0 -34 11 -66 24 -32 13 -91 34 -131 46 -40 12 -75 26
-77 30 -4 7 24 80 30 80 1 0 28 -9 60 -20z m110 -1 c4 -6 5 -12 2 -15 -7 -7
-37 7 -37 17 0 13 27 11 35 -2z m50 -20 c10 -15 -1 -23 -20 -15 -9 3 -13 10
-10 16 8 13 22 13 30 -1z m47 -24 c0 -5 -5 -11 -11 -13 -6 -2 -11 4 -11 13 0
9 5 15 11 13 6 -2 11 -8 11 -13z m-275 -72 c-3 -3 -11 -2 -17 2 -9 6 -9 10 1
16 14 8 27 -7 16 -18z m57 -8 c-4 -8 -10 -15 -15 -15 -5 0 -9 7 -9 15 0 8 7
15 15 15 9 0 12 -6 9 -15z m56 -20 c0 -9 -6 -12 -15 -9 -8 4 -15 10 -15 15 0
5 7 9 15 9 8 0 15 -7 15 -15z m60 -21 c0 -16 -2 -16 -24 -8 -8 3 -12 12 -10
19 7 17 34 8 34 -11z m50 -13 c0 -12 -20 -25 -27 -18 -7 7 6 27 18 27 5 0 9
-4 9 -9z m-1830 -661 c0 -5 -5 -10 -11 -10 -5 0 -7 5 -4 10 3 6 8 10 11 10 2
0 4 -4 4 -10z m24 -586 c8 -21 3 -26 -18 -18 -20 8 -21 34 -2 34 8 0 17 -7 20
-16z"/>
<path d="M3308 3744 c-4 -114 -15 -148 -44 -137 -8 3 -14 -1 -14 -11 0 -9 6
-16 13 -16 8 0 9 -2 1 -8 -6 -4 -14 -17 -18 -29 -4 -12 -20 -36 -36 -52 -15
-17 -26 -31 -23 -31 3 0 -6 -12 -21 -27 -36 -36 -25 -42 18 -9 19 14 38 26 43
26 18 0 132 158 162 225 31 70 9 150 -47 171 l-30 11 -4 -113z"/>
<path d="M2929 3743 c-78 -10 -90 -14 -78 -29 9 -10 26 -14 61 -11 26 2 51 7
55 11 3 3 14 6 24 6 9 0 19 6 22 14 5 13 -26 17 -84 9z"/>
<path d="M998 3713 c12 -2 32 -2 45 0 12 2 2 4 -23 4 -25 0 -35 -2 -22 -4z"/>
<path d="M3196 3695 c-4 -14 -11 -25 -16 -25 -6 0 -10 -6 -10 -14 0 -16 -28
-41 -36 -33 -4 3 -3 14 1 24 5 10 7 22 6 26 -1 5 3 6 8 3 5 -3 14 1 21 9 11
13 8 15 -16 15 -21 0 -34 -8 -49 -31 -33 -50 -115 -80 -220 -80 -60 0 -70 -12
-35 -42 11 -9 20 -23 20 -32 0 -26 48 -48 103 -48 74 0 137 31 203 100 66 69
108 151 69 137 -8 -4 -15 -1 -15 5 0 22 -28 10 -34 -14z"/>
<path d="M3740 3665 c-17 -32 -11 -37 28 -23 37 14 40 23 13 38 -26 13 -26 14
-41 -15z"/>
<path d="M2672 3595 c-16 -62 -16 -68 14 -131 14 -30 24 -65 22 -78 -2 -17 9
-34 42 -65 24 -23 51 -39 58 -36 8 3 19 5 25 5 6 0 -3 15 -20 33 -22 23 -43
70 -78 175 -26 78 -48 142 -49 142 -1 0 -7 -20 -14 -45z"/>
<path d="M5087 3423 c-14 -13 -7 -63 8 -63 8 0 15 -9 15 -21 0 -15 -5 -19 -19
-14 -22 7 -34 -16 -25 -50 3 -12 1 -26 -5 -29 -15 -10 -14 -42 2 -44 6 0 22
-4 35 -7 22 -7 22 -6 22 76 0 126 -11 175 -33 152z"/>
<path d="M2850 3288 c0 -13 42 -88 50 -88 23 0 17 22 -15 56 -19 20 -35 35
-35 32z"/>
<path d="M2846 3177 c3 -10 9 -15 12 -12 3 3 0 11 -7 18 -10 9 -11 8 -5 -6z"/>
<path d="M4810 2922 c0 -7 -7 -12 -14 -12 -8 0 -27 -11 -42 -25 -20 -19 -30
-22 -40 -14 -21 18 -48 2 -60 -36 -6 -20 -9 -34 -7 -31 6 6 43 -31 43 -43 0
-6 4 -12 8 -15 5 -3 8 16 8 42 -1 35 3 47 14 48 8 0 29 2 45 3 24 1 33 9 47
39 12 24 14 40 8 46 -7 7 -10 6 -10 -2z"/>
<path d="M793 2558 c2 -7 12 -13 22 -13 10 0 20 6 23 13 2 7 -6 12 -23 12 -17
0 -25 -5 -22 -12z"/>
<path d="M920 2469 c-15 -27 -19 -50 -15 -69 9 -43 35 -28 35 20 0 22 5 42 10
45 13 8 13 45 0 45 -5 0 -19 -18 -30 -41z"/>
<path d="M1273 2293 c9 -2 23 -2 30 0 6 3 -1 5 -18 5 -16 0 -22 -2 -12 -5z"/>
<path d="M1368 2283 c7 -3 16 -2 19 1 4 3 -2 6 -13 5 -11 0 -14 -3 -6 -6z"/>
</g>
</svg>
