<svg xmlns="http://www.w3.org/2000/svg" viewBox="0 0 512 288">
  <defs>
    <style>
      .cls-1 {
        fill-rule: evenodd;
      }
    </style>
  </defs>
  <path id="signature" data-name="signature" class="cls-1" d="M297,40c11.345,2.2,18.119,4.7,17,20l-2-1c-0.064-5.945-.211-6.818-4-9-3.078-2.895-5.971-3.821-12-4-31.429,15.51-36.343,69.351-46,99-5.239,16.084-2.367,40.356,11,42,7.72-5.683,23.275-22.762,30-25,3.148,8.476,6.092,13.507,6,27,12.447-10.794,6.509-29.461,16-45l8-2,5,6c-3.083,9.438-4.5,18.141-11,24l2,2,18-11,4,6c7.623-7.182,26.82-16.132,35-16-1.111,4.824-1.136,9.647-2,19h1l8-7c-0.047-9.41,2.157-20.913,9-25,5.2-2.207,4.976-.869,9,2-0.146-15.682,4.462-46.309,16-54,2.045,1.994.781,1.595,4,3-2.349,16.885-16.779,66.846-15,73l3,5c14.206-.129,31.57-23.279,45-16,2.157,15.327-11.758,60.043-23,51l14-30,3,3,3-20c-14.735,2.009-20.77,13.588-33,18-10,3.608-25.254-9.216-37-1-5.007,10.123-11.683,27.859-14,43l-3,1c-3.827-1.321-2.08,0-4-3-9.234-17.518,7.445-37.046,10-47l-3-1c0.218,7.517-2.446,11.535-8,16l-3-2c-1.452-7.671.3-8.415,2-15l-10,5c-7.946,6.017-6.994,21.942-8,34l-7,2-1-3c3.679-10.339,7.941-31.824,1-37,0.533,2.944,3.727,2.549,0,4-1.937,2.8-18.452,14.327-21,9-12.887,14.547-11.663,27.634-22,44-4.214.14-5.824,1.942-7-1-2.014-3.281-2.293-7.8-1-12l12-16q-1-12.5-2-25l-3,2c-5.419,10.547-15.616,15.19-26,21l-11-2-6-19c-6.431-39.213,25.282-113.712,48-131ZM109,42c8.3,10.958,4.472,63.4,6,86h1c-0.567-22.811,5.069-62.531,21-75l5,1c2.961,7.167,4.268,11.295,4,18h-2c-0.266-7.5-2.1-10.64-5-15l-3,2c-9.895,27.084-16.778,50.036-19,87q2.5,19,5,38c-0.392,10.483,11.435,28.221,7,33v3c-3.827-1.321-2.08,0-4-3-5.057-3.759-4.861-24.054-7-34-4.984-23.178-3.457-102.285-10-111-0.479,31.328,4.22,119.97-11,143-7.573-.5-7.774-2.714-12-6-4.019-13.357-16.209-34.385-13-53h4c1.9,1.373,1.636.973,3,3a11.826,11.826,0,0,1,1,10H79c-0.644-3.635-.4-3.027-2-5l-1,3c5.67,15.351,5.287,33.446,18,43,10.337-8.8,7.152-31.5,8-49q2-58.993,4-118Zm196,3,2,1Zm105,58c0.6,8.94-7,22.521-3,29C408.254,123.671,414.7,109.633,410,103Zm-3,30v0Zm-6,1,3,3C402.4,134.3,403.661,135.623,401,134Zm4,2,1,2C405.576,137.072,406.8,137.324,405,136Zm-14,9-5,11,4-1,3-10h-2Zm-74,3c-3.95,6.139-8.343,16.119-6,23l1-2c4.326-5.249,7.169-11.215,8-20Zm81,0-10,17,1,2h5C395.336,161.551,401.244,151.843,398,148Zm-76,3v0Zm-133,5,5,1c9.274,4.044,5.1,10.736,8,19,5.188-4.333,7.963-8.133,15-11,4.079,2.785,6.1,6.887,5,12h4c1.661-4.454,2.948-5.012,8-6l1,1-4,4c-1.193,2.726-14.977,30.348-16,31-3.024.416-2.322,0.436-5-1,5.064-14.74,8.43-19.523,8-34l-4,2c-16.062,7.644-8.669,26.229-21,37l-4-2c-0.08-16.311,10.422-21.568,7-41l-2-3-3,2c-0.977,7.26-4.77,19.732-12,24-9.327-3.029-13.29,3.871-23,0-1.627,6.7-3.227,6.433-7,9l-6-3q1-6,2-12c-5.866,4.03-9.906,8.9-18,8q-0.5-3-1-6c13.867-2.025,22.714-20.659,31-20,3.85-1.023,2.062-1.967,5,0l3,2q-2.5,8.5-5,17c6.346,0.725,8.325-.359,14-2C178.1,172.082,183.554,164.929,189,156Zm-99,1,4,2-4,2v-4Zm344,2v0Zm-126,4v0Zm61,3v3l1-3h-1Zm-156,4q-0.5,1-1,2l2-2h-1Zm79,2,2,1Zm29,2v0Zm-168,4-4,14h2C152.25,187.178,155.721,180.753,153,178Zm50,1,2,1Zm51,2,3,2h-3v-2Zm187,0v0Zm-75,5c-3.353,6.428-7.677,16.109-4,24h1C364.242,201.721,370.256,191.422,366,186Zm-196,1v0Zm188,13v0Zm-72,6-1,2C286.857,206.754,285.547,207.107,286,206Zm2,1-4,10,3,1v-2C289.248,212.576,289.943,209.288,288,207Zm71,0v0Zm-77,7v0Zm13,30c-0.424.928,0.8,0.676-1,2Z"/>
</svg>
